<?xml version="1.0" encoding="UTF-8" standalone="no"?>
<!-- Created with Inkscape (http://www.inkscape.org/) -->

<svg
   xmlns:dc="http://purl.org/dc/elements/1.1/"
   xmlns:cc="http://creativecommons.org/ns#"
   xmlns:rdf="http://www.w3.org/1999/02/22-rdf-syntax-ns#"
   xmlns:svg="http://www.w3.org/2000/svg"
   xmlns="http://www.w3.org/2000/svg"
   xmlns:sodipodi="http://sodipodi.sourceforge.net/DTD/sodipodi-0.dtd"
   xmlns:inkscape="http://www.inkscape.org/namespaces/inkscape"
   id="svg2"
   version="1.1"
   inkscape:version="0.91 r13725"
   width="1500"
   height="1000"
   viewBox="0 0 1500 1000"
   sodipodi:docname="eq.svg">
  <metadata
     id="metadata8">
    <rdf:RDF>
      <cc:Work
         rdf:about="">
        <dc:format>image/svg+xml</dc:format>
        <dc:type
           rdf:resource="http://purl.org/dc/dcmitype/StillImage" />
        <dc:title></dc:title>
      </cc:Work>
    </rdf:RDF>
  </metadata>
  <defs
     id="defs6" />
  <sodipodi:namedview
     pagecolor="#ffffff"
     bordercolor="#666666"
     borderopacity="1"
     objecttolerance="10"
     gridtolerance="10"
     guidetolerance="10"
     inkscape:pageopacity="0"
     inkscape:pageshadow="2"
     inkscape:window-width="1920"
     inkscape:window-height="1017"
     id="namedview4"
     showgrid="false"
     showguides="false"
     inkscape:zoom="0.25"
     inkscape:cx="384.36655"
     inkscape:cy="717.8422"
     inkscape:window-x="-8"
     inkscape:window-y="-8"
     inkscape:window-maximized="1"
     inkscape:current-layer="svg2">
    <inkscape:grid
       type="xygrid"
       id="grid4311" />
  </sodipodi:namedview>
  <flowRoot
     xml:space="preserve"
     id="flowRoot4146"
     style="font-style:normal;font-weight:normal;font-size:40px;line-height:125%;font-family:sans-serif;letter-spacing:0px;word-spacing:0px;fill:#000000;fill-opacity:1;stroke:none;stroke-width:1px;stroke-linecap:butt;stroke-linejoin:miter;stroke-opacity:1"
     transform="translate(0,-2870)"><flowRegion
       id="flowRegion4148"><rect
         id="rect4150"
         width="814.57355"
         height="191.32332"
         x="542.08276"
         y="391.39417" /></flowRegion><flowPara
       id="flowPara4152"></flowPara></flowRoot>  <g
     transform="matrix(3.7477737,0,0,3.808436,-1320.6062,-453.74802)"
     style="font-style:normal;font-variant:normal;font-weight:normal;font-stretch:normal;font-size:40px;line-height:125%;font-family:'Basica v.2012';-inkscape-font-specification:'Basica v.2012';letter-spacing:0px;word-spacing:0px;fill:#000000;fill-opacity:1;stroke:none;stroke-width:1px;stroke-linecap:butt;stroke-linejoin:miter;stroke-opacity:1"
     id="flowRoot4154-7-7-9-7">
    <path
       style="font-style:normal;font-variant:normal;font-weight:normal;font-stretch:normal;font-size:180px;font-family:'Basica v.2012';-inkscape-font-specification:'Basica v.2012';fill:#000000;fill-opacity:1"
       d="m 1006.7578,525 130.9668,130.56445 c 0,0 306.854,0.36914 460.2793,0.36914 1.3176,0 1.9766,-0.66891 1.9766,-2.00781 l 0,-126.86133 c 0,-1.11572 -0.659,-1.78464 -1.9766,-2.00781 -197.082,0.054 -591.2461,-0.0566 -591.2461,-0.0566 z m 174.5723,174.00391 131.2949,130.92382 285.3789,0.0645 c 0,0 1.9766,-0.67087 1.9766,-2.00977 l 0,-126.86133 c 0,-1.11572 -0.659,-1.78463 -1.9766,-2.00781 -138.8652,-0.003 -277.8086,-0.10586 -416.6738,-0.10941 z"
       transform="matrix(0.26682508,0,0,0.26257498,113.8427,99.633955)"
       id="path4307"
       inkscape:connector-curvature="0"
       sodipodi:nodetypes="cccsscccccssccc" />
  </g>
  <path
     d="m 1290.0393,406.53898 0,219.556 c 43.7274,42.966 130.0109,129.612 130.0109,129.612 0,0 -130.6696,-0.01 -131.987,-0.01 l -555.66499,0 c -1.5371,0 -2.3057,-0.67 -2.3057,-2.008 l 0,-475.975 c 0.2194,-1.339 0.988,-2.009 2.3057,-2.009 l 415.65229,0 z m -417.32499,218.285 174.90109,0 99.93,0.879 -0.1277,-46.066 0,-123.808 -57.2672,-49.243 -217.43619,0 z"
     style="font-style:normal;font-variant:normal;font-weight:normal;font-stretch:normal;font-size:180px;line-height:125%;font-family:'Basica v.2012';-inkscape-font-specification:'Basica v.2012';letter-spacing:0px;word-spacing:0px;fill:#000000;fill-opacity:1;stroke:none;stroke-width:1px;stroke-linecap:butt;stroke-linejoin:miter;stroke-opacity:1"
     id="path4309"
     inkscape:connector-curvature="0"
     sodipodi:nodetypes="cccssscccccccccccc" />
  <path
     style="font-style:normal;font-variant:normal;font-weight:normal;font-stretch:normal;font-size:180px;line-height:125%;font-family:'Basica v.2012';-inkscape-font-specification:'Basica v.2012';letter-spacing:0px;word-spacing:0px;fill:#000000;fill-opacity:1;stroke:none;stroke-width:1px;stroke-linecap:butt;stroke-linejoin:miter;stroke-opacity:1"
     d="m 287.41181,406.66198 131.2949,-130.923 285.3789,-0.06 c 0,0 1.9766,0.67 1.9766,2.009 l 0,126.862 c 0,1.115 -0.659,1.784 -1.9766,2.008 -138.8652,0 -277.8086,0.105 -416.6738,0.109 z"
     id="path4307-2"
     inkscape:connector-curvature="0"
     sodipodi:nodetypes="ccssccc" />
</svg>
